<?xml version="1.0" standalone="no"?>
<!DOCTYPE svg PUBLIC "-//W3C//DTD SVG 20010904//EN"
 "http://www.w3.org/TR/2001/REC-SVG-20010904/DTD/svg10.dtd">
<svg version="1.0" xmlns="http://www.w3.org/2000/svg"
 width="512.000000pt" height="512.000000pt" viewBox="0 0 512.000000 512.000000"
 preserveAspectRatio="xMidYMid meet">

<g transform="translate(0.000000,512.000000) scale(0.100000,-0.100000)"
fill="#000000" stroke="none">
<path d="M2509 5112 c-49 -21 -2471 -1638 -2485 -1660 -26 -39 -29 -103 -9
-147 15 -31 56 -62 245 -189 l228 -151 -228 -151 c-240 -161 -260 -180 -260
-254 0 -74 20 -93 260 -254 l228 -151 -228 -151 c-189 -127 -230 -158 -245
-189 -20 -44 -17 -108 9 -147 14 -21 2372 -1597 2470 -1650 49 -27 95 -22 157
15 186 113 2431 1613 2445 1635 26 39 29 103 9 147 -15 31 -56 62 -245 189
l-228 151 228 151 c240 161 260 180 260 254 0 74 -20 93 -260 254 l-228 151
228 151 c190 127 230 158 244 189 21 44 18 108 -8 147 -15 23 -2388 1608
-2473 1652 -33 16 -85 20 -114 8z m1113 -1027 c585 -388 1063 -710 1063 -715
0 -5 -478 -327 -1062 -715 l-1063 -705 -1062 706 c-585 388 -1063 709 -1063
714 0 6 2104 1413 2122 1419 2 1 481 -316 1065 -704z m-2004 -1869 c467 -310
863 -571 880 -580 40 -21 85 -20 125 0 18 10 410 268 873 575 462 307 847 561
856 564 17 7 341 -202 336 -217 -2 -4 -481 -325 -1065 -713 l-1063 -705 -1062
706 c-585 388 -1063 710 -1063 715 0 9 312 219 327 219 3 0 389 -254 856 -564z
m0 -810 c467 -310 863 -571 880 -580 40 -21 85 -20 125 0 18 10 410 268 873
575 462 307 847 561 856 564 17 7 341 -202 336 -217 -2 -4 -481 -325 -1065
-713 l-1063 -705 -1062 706 c-585 388 -1063 710 -1063 715 0 9 312 219 327
219 3 0 389 -254 856 -564z"/>
<path d="M2511 4303 c-8 -3 -308 -201 -668 -439 -615 -408 -655 -436 -673
-476 -24 -54 -24 -72 0 -125 27 -60 70 -85 140 -80 54 3 70 13 653 400 l597
396 604 -399 c589 -391 604 -400 652 -400 64 0 109 28 134 83 24 53 24 71 0
125 -18 40 -57 68 -657 466 -351 233 -652 430 -670 439 -31 17 -84 21 -112 10z"/>
<path d="M2510 3493 c-27 -11 -675 -445 -703 -471 -15 -14 -33 -43 -39 -64
-31 -105 80 -213 186 -181 17 5 161 96 319 201 l287 192 287 -192 c158 -105
302 -196 319 -201 99 -30 209 67 190 168 -4 19 -19 49 -34 66 -23 28 -626 435
-703 474 -28 15 -81 19 -109 8z"/>
</g>
</svg>
